<svg xmlns="http://www.w3.org/2000/svg" style="display: none;">
  <symbol id="icon-avatar" viewBox="0 0 16 16">
    <path d="M11 6a3 3 0 1 1-6 0 3 3 0 0 1 6 0"/>
    <path fill-rule="evenodd" d="M0 8a8 8 0 1 1 16 0A8 8 0 0 1 0 8m8-7a7 7 0 0 0-5.468 11.37C3.242 11.226 4.805 10 8 10s4.757 1.225 5.468 2.37A7 7 0 0 0 8 1"/>
  </symbol>
  <symbol id="icon-home" viewBox="0 0 16 16">
    <path d="M8.707 1.5a1 1 0 0 0-1.414 0L.646 8.146a.5.5 0 0 0 .708.708L8 2.207l6.646 6.647a.5.5 0 0 0 .708-.708L13 5.793V2.5a.5.5 0 0 0-.5-.5h-1a.5.5 0 0 0-.5.5v1.293z"/>
    <path d="m8 3.293 6 6V13.5a1.5 1.5 0 0 1-1.5 1.5h-9A1.5 1.5 0 0 1 2 13.5V9.293z"/>
  </symbol>
  <symbol id="icon-inbox" viewBox="0 0 16 16">
    <path d="M4.98 4a.5.5 0 0 0-.39.188L1.54 8H6a.5.5 0 0 1 .5.5 1.5 1.5 0 1 0 3 0A.5.5 0 0 1 10 8h4.46l-3.05-3.812A.5.5 0 0 0 11.02 4zm-1.17-.437A1.5 1.5 0 0 1 4.98 3h6.04a1.5 1.5 0 0 1 1.17.563l3.7 4.625a.5.5 0 0 1 .106.374l-.39 3.124A1.5 1.5 0 0 1 14.117 13H1.883a1.5 1.5 0 0 1-1.489-1.314l-.39-3.124a.5.5 0 0 1 .106-.374z"/>
  </symbol>
  <symbol id="icon-profile" viewBox="0 0 62 61">

    <path d="M31.7625 31.0591C33.1187 29.8852 34.2065 28.4333 34.952 26.8019C35.6975 25.1705 36.0834 23.3978 36.0834 21.6041C36.0834 18.2337 34.7444 15.0013 32.3612 12.618C29.9779 10.2347 26.7455 8.89581 23.375 8.89581C20.0046 8.89581 16.7721 10.2347 14.3889 12.618C12.0056 15.0013 10.6667 18.2337 10.6667 21.6041C10.6667 23.3978 11.0525 25.1705 11.798 26.8019C12.5436 28.4333 13.6313 29.8852 14.9875 31.0591C11.4295 32.6703 8.41087 35.272 6.29243 38.5534C4.17399 41.8347 3.04543 45.6567 3.04169 49.5625C3.04169 50.2366 3.30947 50.8831 3.78612 51.3597C4.26278 51.8364 4.90926 52.1041 5.58335 52.1041C6.25745 52.1041 6.90393 51.8364 7.38058 51.3597C7.85724 50.8831 8.12502 50.2366 8.12502 49.5625C8.12502 45.5179 9.73171 41.639 12.5916 38.7791C15.4516 35.9192 19.3305 34.3125 23.375 34.3125C27.4196 34.3125 31.2985 35.9192 34.1584 38.7791C37.0183 41.639 38.625 45.5179 38.625 49.5625C38.625 50.2366 38.8928 50.8831 39.3695 51.3597C39.8461 51.8364 40.4926 52.1041 41.1667 52.1041C41.8408 52.1041 42.4873 51.8364 42.9639 51.3597C43.4406 50.8831 43.7084 50.2366 43.7084 49.5625C43.7046 45.6567 42.5761 41.8347 40.4576 38.5534C38.3392 35.272 35.3205 32.6703 31.7625 31.0591ZM23.375 29.2291C21.8669 29.2291 20.3927 28.7819 19.1388 27.9441C17.8849 27.1063 16.9076 25.9154 16.3304 24.5221C15.7533 23.1288 15.6023 21.5957 15.8965 20.1166C16.1907 18.6375 16.917 17.2788 17.9833 16.2125C19.0497 15.1461 20.4084 14.4199 21.8875 14.1257C23.3666 13.8314 24.8997 13.9824 26.293 14.5596C27.6863 15.1367 28.8771 16.114 29.715 17.3679C30.5528 18.6218 31 20.0961 31 21.6041C31 23.6264 30.1967 25.5659 28.7667 26.9958C27.3367 28.4258 25.3973 29.2291 23.375 29.2291ZM48.1309 30.0425C49.7574 28.2108 50.82 25.948 51.1905 23.5265C51.5611 21.105 51.2239 18.628 50.2195 16.3937C49.2151 14.1594 47.5864 12.263 45.5294 10.9328C43.4724 9.60252 41.0747 8.89516 38.625 8.89581C37.9509 8.89581 37.3044 9.1636 36.8278 9.64025C36.3511 10.1169 36.0834 10.7634 36.0834 11.4375C36.0834 12.1116 36.3511 12.7581 36.8278 13.2347C37.3044 13.7114 37.9509 13.9791 38.625 13.9791C40.6473 13.9791 42.5867 14.7825 44.0167 16.2125C45.4467 17.6424 46.25 19.5819 46.25 21.6041C46.2464 22.9391 45.8924 24.2498 45.2233 25.405C44.5543 26.5602 43.5937 27.5196 42.4375 28.1871C42.0607 28.4044 41.746 28.7149 41.5234 29.0887C41.3009 29.4625 41.1781 29.8872 41.1667 30.3221C41.1561 30.7535 41.2555 31.1806 41.4556 31.5631C41.6557 31.9455 41.9499 32.2706 42.3104 32.5079L43.3017 33.1687L43.6321 33.3466C46.6958 34.7998 49.2805 37.0981 51.0817 39.971C52.8829 42.8439 53.8256 46.1717 53.7988 49.5625C53.7988 50.2366 54.0666 50.8831 54.5432 51.3597C55.0199 51.8364 55.6663 52.1041 56.3404 52.1041C57.0145 52.1041 57.661 51.8364 58.1377 51.3597C58.6143 50.8831 58.8821 50.2366 58.8821 49.5625C58.9029 45.6621 57.926 41.8212 56.0443 38.4047C54.1625 34.9882 51.4384 32.1096 48.1309 30.0425Z"/>
  </symbol>
  <symbol id="icon-archive" viewBox="0 0 16 16">
    <path d="M12.643 15C13.979 15 15 13.845 15 12.5V5H1v7.5C1 13.845 2.021 15 3.357 15zM5.5 7h5a.5.5 0 0 1 0 1h-5a.5.5 0 0 1 0-1M.8 1a.8.8 0 0 0-.8.8V3a.8.8 0 0 0 .8.8h14.4A.8.8 0 0 0 16 3V1.8a.8.8 0 0 0-.8-.8z"/>
  </symbol>
  <symbol id="icon-menu" viewBox="0 0 16 16">

  <path d="M3 9.5a1.5 1.5 0 1 1 0-3 1.5 1.5 0 0 1 0 3m5 0a1.5 1.5 0 1 1 0-3 1.5 1.5 0 0 1 0 3m5 0a1.5 1.5 0 1 1 0-3 1.5 1.5 0 0 1 0 3"/>

  </symbol>
  <symbol id="icon-search" viewBox="0 0 16 16">
  <path d="M11.742 10.344a6.5 6.5 0 1 0-1.397 1.398h-.001q.044.06.098.115l3.85 3.85a1 1 0 0 0 1.415-1.414l-3.85-3.85a1 1 0 0 0-.115-.1zM12 6.5a5.5 5.5 0 1 1-11 0 5.5 5.5 0 0 1 11 0"/>
  </symbol>
</svg>
